<svg version="1.1" xmlns="http://www.w3.org/2000/svg" viewBox="0 0 560.3333435058594 367.7686691957059" width="560.3333435058594" height="367.7686691957059">
  <!-- svg-source:excalidraw -->
  
  <defs>
    <style class="style-fonts">
      @font-face {
        font-family: "Virgil";
        src: url("https://excalidraw.com/Virgil.woff2");
      }
      @font-face {
        font-family: "Cascadia";
        src: url("https://excalidraw.com/Cascadia.woff2");
      }
    </style>
  </defs>
  <rect x="0" y="0" width="560.3333435058594" height="367.7686691957059" fill="#fdf8f6"></rect><g stroke-linecap="round" transform="translate(441.3333435058594 119.33334350585938) rotate(0 54.5 51)"><path d="M20.3 9.7 C20.3 9.7, 20.3 9.7, 20.3 9.7 M20.3 9.7 C20.3 9.7, 20.3 9.7, 20.3 9.7 M3.93 33.47 C12.42 26.7, 16 18.38, 27.32 8.14 M5.6 32.73 C11.42 25.52, 18.98 18.24, 27.05 7.73 M5.58 42.35 C13.46 29.97, 23.15 18.02, 37.11 2.42 M4.77 40.75 C15.78 26.58, 27.11 13.2, 35.32 4.24 M0.69 49.48 C11.7 38.5, 20.84 27.71, 42.83 3.55 M3.06 47.65 C12.9 37.3, 22.78 27.02, 41.99 3.4 M0.15 57.15 C11.27 45, 23.2 32.65, 49.25 3.39 M-0.55 57.4 C13.58 42.25, 28.25 24.98, 47.76 2.35 M0.23 59.35 C13.65 45.05, 25.81 29.89, 53.75 4.23 M2.84 60.5 C20.71 37.41, 42.09 15, 53.29 3.17 M3.54 64.89 C23.99 43.15, 43.87 18.66, 55.68 2.79 M4.56 65.99 C21.59 44.85, 39.88 25.58, 57.06 2.85 M5.4 69.18 C18.62 53.48, 29.52 41.34, 63.65 3.62 M5.21 69.22 C17.27 56.26, 29.62 42.71, 62.2 3.63 M8.55 73.48 C22.96 53.63, 39.76 35.77, 67.55 4.56 M6.99 72.1 C22.9 53.97, 39.91 35.44, 67.02 4.47 M8.53 76.84 C34.04 50.18, 60.12 19.8, 70.48 5.41 M9.55 76.99 C26.86 57.75, 43.94 35.44, 72.52 4.65 M10.88 79.25 C26.33 66.2, 39.04 48.1, 74.77 7.13 M10.77 80.82 C26.95 65, 42.07 47.31, 76.91 4.97 M12.55 85.62 C26.35 69.89, 40.47 51.94, 80.61 6.01 M12.62 85.02 C27.96 67.32, 41.74 50.68, 79.73 6.88 M15.18 85.45 C32.92 69.51, 48.45 51.34, 84.66 12.15 M18.05 86.2 C42.78 55.49, 69.03 26.04, 83.09 10.9 M21.76 89.52 C38.5 69, 53.79 50.72, 86.08 12.32 M20.18 88.77 C38.94 66.28, 58.12 44.93, 87.14 12.5 M23.9 90.84 C39.84 72.89, 55.72 59.21, 89.14 16.46 M23.02 90.85 C42.46 68.58, 62.01 46.77, 89.26 14.53 M27.2 93.05 C51.12 65.75, 69.9 42.14, 94.59 15.64 M27.48 92.72 C40.42 77.41, 53.95 62.2, 92.94 18.14 M29.83 96.15 C47.82 77.02, 62.72 57.71, 94.9 19.16 M31.39 95.39 C50.91 72.28, 70.62 49.62, 95.55 19.92 M32.58 96.16 C46 81.49, 62.35 68.76, 100.93 21.31 M34.13 98.37 C55.26 72.1, 77.61 47.07, 98.6 23.53 M37.44 98.82 C56.29 77.25, 74.96 54.9, 100.63 27.79 M36.75 100.2 C61.28 74.4, 83.2 46.57, 100.85 26.15 M43.61 101.01 C62.72 75.21, 84.26 50.06, 104.91 30.12 M42.45 99.97 C61.8 77.85, 79.98 57.37, 103.83 29.86 M46.86 100.73 C61.74 84.24, 77.79 64.6, 104.4 34.87 M47.56 102.16 C62.55 84.73, 77.15 65.73, 105.07 34.81 M52.74 100 C70.89 79.57, 88.12 59.03, 108.01 37.31 M51.2 101.55 C62.59 87.16, 74.7 73.78, 106.21 37.86 M56.66 102.54 C76.47 80.02, 94.81 58.02, 107.63 42.13 M56.93 101.93 C73.96 82.7, 91.76 61.93, 108.21 43.25 M62.45 103.74 C80.69 82.09, 95.21 64.54, 108.08 46.35 M61.85 101.91 C78.21 83.44, 93.67 64.66, 110.88 46.5 M71.04 99.06 C83.01 81.2, 98.47 67.25, 107.82 52.04 M68.8 98.42 C84.13 82.25, 96.59 66.98, 110.05 53.1 M75.18 99.03 C87.61 87.21, 94.9 73.26, 108.1 60.96 M77.58 97.58 C85.14 86.13, 95.79 77.15, 108.32 60.08 M84.63 95.87 C91.69 85.01, 100.91 77.29, 108.44 69.27 M83.72 94.34 C91.35 87.22, 96.37 80.85, 107.04 68.75" stroke="#b2f2bb" stroke-width="0.5" fill="none"></path><path d="M46.72 0.93 C55.2 -0.88, 67.41 1.14, 75.77 4.35 C84.13 7.57, 91.52 13.53, 96.89 20.24 C102.26 26.96, 106.68 36.17, 108 44.64 C109.32 53.11, 108.29 63.13, 104.81 71.06 C101.32 78.99, 94.41 87.23, 87.09 92.22 C79.77 97.22, 69.61 100.05, 60.88 101.01 C52.15 101.97, 42.82 100.96, 34.71 97.97 C26.6 94.99, 18.06 89.83, 12.2 83.11 C6.34 76.39, 0.86 66.18, -0.45 57.64 C-1.75 49.11, 0.9 39.91, 4.37 31.9 C7.84 23.9, 11.79 14.84, 20.36 9.63 C28.94 4.41, 48.73 2, 55.83 0.62 C62.92 -0.76, 63.22 0.6, 62.95 1.35 M75.76 3.77 C84.15 6.21, 92.73 14.15, 98.04 21.02 C103.34 27.88, 106.26 37.04, 107.62 44.97 C108.98 52.91, 109.53 61.12, 106.17 68.61 C102.82 76.09, 94.97 84.25, 87.51 89.87 C80.05 95.48, 70.5 100.81, 61.39 102.29 C52.29 103.76, 41.03 102.14, 32.88 98.71 C24.73 95.28, 17.84 88.23, 12.48 81.71 C7.13 75.18, 2.05 68.04, 0.74 59.58 C-0.57 51.11, 1.36 38.83, 4.6 30.9 C7.85 22.97, 12.95 17.19, 20.22 12 C27.49 6.81, 39.01 1.37, 48.22 -0.25 C57.42 -1.87, 70.99 1.24, 75.46 2.29 C79.92 3.34, 75.28 5.03, 75.01 6.04" stroke="#1e1e1e" stroke-width="1" fill="none"></path></g><g transform="translate(474.0137973686925 157.77089766534544) rotate(0 21.7822265625 12.5)"><text x="21.7822265625" y="0" font-family="Virgil, Segoe UI Emoji" font-size="20px" fill="#1e1e1e" text-anchor="middle" style="white-space: pre;" direction="ltr" dominant-baseline="text-before-edge">main</text></g><g stroke-linecap="round" transform="translate(10 131.9998779296875) rotate(0 57.5 55.5)"><path d="M8.95 23.68 C8.95 23.68, 8.95 23.68, 8.95 23.68 M8.95 23.68 C8.95 23.68, 8.95 23.68, 8.95 23.68 M5.28 34.05 C11.47 29.37, 13.92 26.59, 22.54 13.12 M5.34 34.32 C11.98 26, 19.34 18.01, 24.01 11.47 M0 44.09 C7.81 37.67, 16.29 28.91, 31.52 6.02 M1.36 43.1 C11.32 34.32, 18.27 22.97, 34.04 7.18 M1.27 51.86 C9.57 42.53, 18.41 32.38, 37.96 6.01 M0.76 50.51 C10.8 41.26, 21.01 29.04, 40.38 6.07 M0.4 55.6 C13.42 44.26, 21.6 32.42, 46.68 4.87 M2.04 56.66 C14.51 41.94, 26.15 28.8, 45.37 4.91 M1.93 62.85 C16.21 44.4, 28.22 31.97, 52.85 3.63 M3.94 61.22 C17.13 46.39, 30.87 29.03, 53.52 3.68 M4.16 66.34 C24.04 42.67, 45.59 18.28, 57.28 2.23 M3.52 66.35 C21.41 45.09, 39.64 23.25, 59.35 3.24 M4.51 71.95 C19.17 56.51, 33.24 39.75, 62.39 4.2 M6.12 70.55 C20.78 51.6, 37.71 34.49, 64.89 3.02 M4.86 74.41 C19.71 60.16, 33.1 43.05, 68.17 5.59 M6.13 75.36 C25.33 52.07, 46.92 29.39, 68.14 3.83 M6.83 78.97 C27.77 57.04, 51.56 30.4, 72.16 4.17 M6.86 81.04 C27.89 55.77, 48.8 32.98, 72.59 4.1 M11.08 82.86 C33.87 52.15, 62.85 22.41, 75.47 6.61 M9.38 82.88 C29.89 61.37, 49.13 38.54, 75.82 7.03 M14.05 88.46 C30.32 65.42, 45.36 47.2, 79.38 8.43 M11.73 86.49 C35.24 59.6, 58.74 34.95, 81.54 7.44 M13.8 89.23 C38.95 64.74, 64 37.33, 84.68 8.17 M16.38 88.61 C37.82 61.46, 62.51 35.27, 85.56 9.99 M18.78 90.93 C39.89 65.75, 62.73 42.67, 87.65 12.1 M17.45 92.28 C40.13 67.57, 60.82 43.36, 89.24 10.8 M22.36 93.28 C40.89 69.42, 62.01 44.24, 93.38 14.14 M20.84 95.53 C42.55 71.38, 64.5 46.87, 93.35 13.38 M24.94 97.64 C49.38 70.04, 72.5 41.4, 96.35 15.8 M22.78 99 C41.27 78.3, 60.01 57.31, 94.19 15.52 M24.47 100.73 C42.46 84.48, 57.05 67.72, 98.49 17.35 M25.99 100.63 C43.65 78.59, 62.42 58.72, 98.18 18.41 M31.82 104.78 C43.51 83.15, 61.05 66.72, 99.12 21.32 M29.52 103.77 C49.95 80.16, 71.72 56.43, 99.34 23.13 M33.46 103.75 C59.03 78.09, 83.18 48.86, 103.6 24.1 M34.94 104.4 C53.9 81.74, 72.24 60.43, 102.45 24.24 M38.05 105.76 C59.72 77.32, 82.74 52.62, 107.33 29.7 M39.53 105.47 C60.34 81.78, 79.57 57.54, 106.59 28.47 M42.47 108.02 C59.23 85.1, 76.36 66.51, 108.35 29.39 M41.77 106.87 C57.68 88.23, 74.36 68.98, 108.28 30.34 M45.04 108.25 C64.25 84.82, 86.49 63.38, 111.4 35.43 M47.16 108.77 C66.56 83.98, 87.87 59.66, 111.06 34.88 M50.29 109.66 C69.39 87.23, 89.6 63.04, 110.47 38.98 M50.44 109.58 C62.99 95.55, 76.86 79.92, 112.59 39.47 M53.49 112.6 C67.61 95.6, 79.44 81.74, 112.14 43.51 M54.74 111.57 C74.56 87.3, 95.47 63.12, 113.5 44.25 M60.01 108.5 C79.4 90.82, 94.94 71.4, 112.96 49.3 M62.4 109.8 C75.55 92.51, 90.17 77.22, 115.3 48.59 M66.74 108.35 C84.13 92.98, 94.69 73.78, 114 51.1 M68.94 108.53 C83.14 91.33, 97.08 75.11, 116.49 53.69 M72.53 107.86 C85.27 98.62, 91.89 85.39, 116.26 60.31 M75.09 107.36 C84.59 94.1, 96.38 78.98, 116.45 58.75 M81.65 105.6 C94.26 90.12, 104.71 76.88, 110.59 71.92 M80.68 105.38 C90.63 94.48, 99.97 84.7, 110.95 70.89 M84.44 108.05 C92.62 97.49, 96.85 90.41, 109.58 80.43 M84.89 107.13 C93.18 97.49, 100.21 88.88, 108.54 80.99" stroke="#ffc9c9" stroke-width="0.5" fill="none"></path><path d="M61.63 0.32 C70.64 0.05, 81.03 3.94, 88.89 9.21 C96.75 14.47, 104.42 23.67, 108.78 31.92 C113.14 40.16, 115.79 49.47, 115.05 58.68 C114.31 67.89, 109.83 79.53, 104.34 87.18 C98.85 94.83, 90.44 100.69, 82.1 104.58 C73.77 108.48, 63.78 111.21, 54.35 110.55 C44.91 109.88, 33.42 105.75, 25.5 100.57 C17.57 95.4, 11.09 87.79, 6.78 79.47 C2.47 71.15, -0.7 59.96, -0.35 50.67 C0 41.38, 3.56 31.13, 8.88 23.75 C14.21 16.37, 22 10.36, 31.61 6.39 C41.21 2.42, 60.36 0.53, 66.49 -0.09 C72.62 -0.71, 68.72 1.73, 68.39 2.69 M39.83 2.8 C48.42 -1.1, 60.5 -2.13, 70.06 -0.1 C79.62 1.92, 90.14 8.22, 97.18 14.94 C104.21 21.65, 109.34 31.3, 112.27 40.17 C115.19 49.04, 117.03 59.15, 114.73 68.16 C112.43 77.17, 105.17 87.47, 98.48 94.23 C91.79 100.99, 83.28 106.33, 74.59 108.71 C65.9 111.09, 55.77 110.4, 46.34 108.51 C36.91 106.62, 25.44 103.5, 18 97.38 C10.56 91.25, 4.35 80.82, 1.7 71.75 C-0.94 62.69, -0.16 51.89, 2.11 42.98 C4.38 34.08, 9.11 24.81, 15.3 18.31 C21.49 11.81, 35.23 6.46, 39.25 4 C43.27 1.55, 39.02 3.18, 39.42 3.61" stroke="#1e1e1e" stroke-width="1" fill="none"></path></g><g transform="translate(36.27202414427347 174.75545157383408) rotate(0 31.0693359375 12.5)"><text x="31.0693359375" y="0" font-family="Virgil, Segoe UI Emoji" font-size="20px" fill="#1e1e1e" text-anchor="middle" style="white-space: pre;" direction="ltr" dominant-baseline="text-before-edge">feature</text></g><g stroke-linecap="round" transform="translate(214.66668701171875 10) rotate(0 59.5 52.5)"><path d="M17.01 16.11 C17.01 16.11, 17.01 16.11, 17.01 16.11 M17.01 16.11 C17.01 16.11, 17.01 16.11, 17.01 16.11 M1.54 39.07 C10.28 31.23, 13.98 23.66, 25.57 10.91 M3.06 39.01 C8.46 31.47, 14.76 25.01, 26.72 11.61 M5.42 41.89 C15.13 31.1, 24.6 18.16, 37.6 4.83 M4.83 41.95 C11.4 35, 19.5 27.01, 36.58 5.82 M6 48.35 C14.54 35.5, 27.48 23.29, 42.83 3.12 M4.32 47.22 C16.57 34.71, 27.08 20.69, 44.44 2.73 M3.72 54.02 C12.36 44.6, 21.71 32, 48.72 2.5 M6.21 53.93 C16.79 39.56, 27.06 27.95, 49.26 2.75 M6.32 57.83 C23.37 37.76, 38.74 19.68, 55.73 1.09 M5.39 58.85 C21.95 39.55, 38.68 20.72, 54.64 1.83 M6.12 65.64 C19.26 53.19, 33.9 34.1, 62.07 4.21 M3.8 67.13 C19.84 50.64, 35.24 32.66, 60.21 3.22 M5.21 72.67 C25.16 48.11, 44.5 26.16, 66.3 2.03 M6.1 70.63 C23.7 52.45, 38.16 33.68, 65.71 2.05 M11.01 75.58 C26.08 55.28, 45.17 32.98, 73.34 0.73 M8.81 74.91 C26.5 52.9, 45.76 32.77, 71.52 2.55 M9.38 78.25 C29.71 56.08, 43.81 37.67, 77.06 4.71 M11.94 77.07 C24.64 62.8, 38 47.2, 74.8 3.14 M14.01 80.03 C33.8 54.86, 57.1 30.75, 78.99 7.05 M13.89 80.95 C32.05 58.8, 50.96 36.34, 78.71 4.88 M17.7 85.44 C32.01 67.75, 44.76 53.79, 82.22 8.37 M15.3 84.74 C38.02 60.09, 60.64 34.4, 83.89 7.34 M17.7 87.82 C34.82 69.49, 53.03 50.03, 85.45 8.12 M17.87 87.68 C39.93 60.82, 62.72 35.53, 87 9.8 M19 91.07 C46.41 64.14, 68.31 37.27, 88.96 11.43 M20.23 91.69 C39.58 70.06, 57.14 49.69, 90.19 11.13 M24.98 91.77 C42.41 72.02, 60.69 49.52, 93.87 14.85 M24.09 92.53 C50.27 62.89, 76.32 31.89, 94.99 13.45 M28.77 93.43 C43.72 77.22, 55.23 61.66, 99.54 14.03 M28.13 93.98 C47.4 72.57, 67.91 50.8, 97.14 14.79 M30.5 97.65 C53.53 70.27, 77.29 44.32, 103.43 16.63 M32.82 95.96 C51.05 74.49, 71.22 51.72, 101.07 15.97 M35.29 99.31 C60.26 66.81, 90.43 34.96, 102.59 18.57 M34.9 97.72 C58.19 73.51, 79.86 48.44, 104.8 19.84 M38.59 102.23 C58.6 75.69, 81.13 53.98, 108.75 20.61 M38.26 100.46 C55.49 81.89, 70.41 64.19, 107.71 21.82 M41.48 100.93 C68.34 71.8, 94.14 40.29, 111.12 27.64 M43.78 103.01 C66.07 75.78, 88.77 50.99, 108.78 26.11 M48.62 103.47 C72.02 77.6, 93.92 49.49, 109.68 28.08 M46.81 103.74 C64.41 83.4, 83.7 62.73, 112.39 29.14 M50.27 102.73 C70.62 83.18, 88.48 58.61, 112.45 33.56 M51.73 103.71 C64.05 87.9, 76.57 74.02, 113.21 32.14 M55.61 104.05 C72.93 85.77, 87.97 68.76, 114.85 36.6 M56.76 103.32 C70.76 88.41, 82.39 75.06, 116.01 36.88 M61.99 104.66 C83.07 81.28, 106.25 57.94, 116.96 38.34 M63.81 103.71 C83.41 79.86, 103.29 57.11, 118.5 40.27 M69.01 105.14 C80.14 92.72, 89.56 81.46, 120.92 44.44 M68.01 103.21 C83.25 87.52, 98.38 68.99, 119.23 44.28 M74.36 101.85 C84.13 88.57, 98.31 74.11, 117.47 50.78 M74.17 103.67 C92.14 82.73, 109.03 62.12, 119.68 50.62 M77.3 105.37 C93.3 86.31, 109.94 69.52, 117.94 56.85 M77.69 103.96 C90.16 90.17, 103.13 77.17, 118.78 58.08 M86.37 99.89 C100.44 89.18, 109.49 77.07, 115.04 66.82 M88.92 99.23 C94.29 91.56, 101.65 82.54, 117.24 66.54" stroke="#a5d8ff" stroke-width="0.5" fill="none"></path><path d="M73.98 1.48 C83.33 2.79, 93.86 9.2, 100.88 15.16 C107.9 21.12, 113.41 28.81, 116.1 37.22 C118.78 45.64, 119.41 56.99, 116.98 65.64 C114.56 74.3, 108.38 82.9, 101.56 89.17 C94.74 95.45, 85.26 100.99, 76.05 103.3 C66.83 105.6, 55.74 105.25, 46.27 102.99 C36.8 100.73, 26.38 95.81, 19.23 89.76 C12.07 83.7, 6.21 75.05, 3.34 66.68 C0.47 58.32, -0.25 47.97, 2.01 39.56 C4.28 31.15, 10.01 22.38, 16.92 16.22 C23.83 10.06, 33.57 4.88, 43.46 2.62 C53.36 0.36, 70.66 2.47, 76.3 2.64 C81.94 2.82, 77.59 2.96, 77.29 3.67 M44.55 1.73 C53.37 -1.3, 64.96 -0.32, 74.34 2.18 C83.72 4.69, 93.51 10.85, 100.83 16.75 C108.16 22.65, 115.86 29.47, 118.3 37.61 C120.75 45.75, 118.42 57.1, 115.51 65.6 C112.6 74.1, 107.78 82.25, 100.86 88.6 C93.93 94.94, 83.17 101.03, 73.93 103.69 C64.7 106.35, 54.63 106.73, 45.46 104.55 C36.29 102.38, 25.93 97.26, 18.92 90.65 C11.91 84.04, 6.35 73.68, 3.39 64.9 C0.44 56.12, -1.38 46.25, 1.19 37.96 C3.75 29.67, 11.58 21.02, 18.78 15.18 C25.97 9.33, 39.9 5.01, 44.36 2.89 C48.81 0.77, 45.37 1.79, 45.5 2.44" stroke="#1e1e1e" stroke-width="1" fill="none"></path></g><g transform="translate(238.85457571861912 49.87689398770624) rotate(0 35.2392578125 12.5)"><text x="35.2392578125" y="0" font-family="Virgil, Segoe UI Emoji" font-size="20px" fill="#1e1e1e" text-anchor="middle" style="white-space: pre;" direction="ltr" dominant-baseline="text-before-edge">develop</text></g><g mask="url(#mask-Hp7NpsR6DZgkLtexUGMlw)" stroke-linecap="round"><g transform="translate(119.46596666510675 155.8150974228709) rotate(0 51.92342472632902 -31.207538365391912)"><path d="M0.58 -0.37 C17.88 -10.51, 87.16 -50.19, 104.42 -60.49 M-0.57 -1.61 C16.59 -12.1, 86.58 -52.12, 103.96 -62.05" stroke="#1e1e1e" stroke-width="1" fill="none"></path></g><g transform="translate(119.46596666510675 155.8150974228709) rotate(0 51.92342472632902 -31.207538365391912)"><path d="M83.98 -37.58 C93.19 -46.28, 97.27 -55.12, 103.2 -63.16 M84.43 -40.13 C90.44 -46.15, 98.28 -54.68, 103.86 -61.42" stroke="#1e1e1e" stroke-width="1" fill="none"></path></g><g transform="translate(119.46596666510675 155.8150974228709) rotate(0 51.92342472632902 -31.207538365391912)"><path d="M73.79 -55.39 C86.67 -57.83, 94.36 -60.36, 103.2 -63.16 M74.24 -57.94 C83.74 -57.94, 94.98 -60.52, 103.86 -61.42" stroke="#1e1e1e" stroke-width="1" fill="none"></path></g></g><mask id="mask-Hp7NpsR6DZgkLtexUGMlw"><rect x="0" y="0" fill="#fff" width="322.9519605561768" height="317.3958287183595"></rect><rect x="159.62693236064183" y="112.52473177512661" fill="#000" width="23.1640625" height="25" opacity="1"></rect></mask><g transform="translate(159.62693236064183 112.52473177512661) rotate(0 11.762459030793934 12.082827282352383)"><text x="11.58203125" y="0" font-family="Virgil, Segoe UI Emoji" font-size="20px" fill="#1e1e1e" text-anchor="middle" style="white-space: pre;" direction="ltr" dominant-baseline="text-before-edge">PR</text></g><g mask="url(#mask-c_saoQVnkULdRGMbrzp93)" stroke-linecap="round"><g transform="translate(331.1173013397814 97.01206028356012) rotate(0 53.96637226958734 26.821572078638013)"><path d="M0.32 0.03 C18.28 9.33, 90.76 45.58, 108.91 54.64 M-0.97 -1 C16.8 8.05, 90.02 43.95, 108.34 52.82" stroke="#1e1e1e" stroke-width="1" fill="none"></path></g><g transform="translate(331.1173013397814 97.01206028356012) rotate(0 53.96637226958734 26.821572078638013)"><path d="M78.55 50.87 C91.14 52.5, 102.47 50.83, 109.79 53.2 M77.67 49.32 C89.21 50.98, 101.71 53.13, 107.38 53.54" stroke="#1e1e1e" stroke-width="1" fill="none"></path></g><g transform="translate(331.1173013397814 97.01206028356012) rotate(0 53.96637226958734 26.821572078638013)"><path d="M87.56 32.43 C96.43 41.31, 104.23 46.88, 109.79 53.2 M86.67 30.88 C94.68 39.61, 103.69 48.91, 107.38 53.54" stroke="#1e1e1e" stroke-width="1" fill="none"></path></g></g><mask id="mask-c_saoQVnkULdRGMbrzp93"><rect x="0" y="0" fill="#fff" width="539.3079211216923" height="251.07104655949053"></rect><rect x="373.630579980737" y="111.54155342152535" fill="#000" width="23.1640625" height="25" opacity="1"></rect></mask><g transform="translate(373.6305799807369 111.54155342152535) rotate(0 11.453093628631848 12.29207894067278)"><text x="11.58203125" y="0" font-family="Virgil, Segoe UI Emoji" font-size="20px" fill="#1e1e1e" text-anchor="middle" style="white-space: pre;" direction="ltr" dominant-baseline="text-before-edge">PR</text></g><g mask="url(#mask-zwcpwh3HWEbmHAiWHifnU)" stroke-linecap="round"><g transform="translate(262.99993896484375 303.333251953125) rotate(0 -75.47705406536244 -38.51377694537973)"><path d="M-0.38 0.45 C-25.77 -12.17, -126.23 -62.88, -151.48 -75.92 M1.62 -0.35 C-24.03 -13.27, -126.81 -64.72, -152.58 -77.48" stroke="#1e1e1e" stroke-width="1" fill="none"></path></g><g transform="translate(262.99993896484375 303.333251953125) rotate(0 -75.47705406536244 -38.51377694537973)"><path d="M-122.01 -74.58 C-132.14 -76.6, -146.47 -75.2, -151.92 -76.56 M-122.79 -74.93 C-134.68 -76.07, -145.6 -77.41, -152.59 -77.3" stroke="#1e1e1e" stroke-width="1" fill="none"></path></g><g transform="translate(262.99993896484375 303.333251953125) rotate(0 -75.47705406536244 -38.51377694537973)"><path d="M-131.17 -56.22 C-137.84 -65.09, -148.74 -70.57, -151.92 -76.56 M-131.95 -56.57 C-140.28 -64.83, -147.67 -73.26, -152.59 -77.3" stroke="#1e1e1e" stroke-width="1" fill="none"></path></g></g><mask id="mask-zwcpwh3HWEbmHAiWHifnU"><rect x="0" y="0" fill="#fff" width="514.1802065764161" height="480.33239598484937"></rect><rect x="152.32191453405756" y="252.3336799372628" fill="#000" width="70.17578125" height="25" opacity="1"></rect></mask><g transform="translate(152.32191453405756 252.3336799372628) rotate(0 35.20097036542376 12.485795070482482)"><text x="35.087890625" y="0" font-family="Virgil, Segoe UI Emoji" font-size="20px" fill="#1e1e1e" text-anchor="middle" style="white-space: pre;" direction="ltr" dominant-baseline="text-before-edge">Commit</text></g><g stroke-linecap="round" transform="translate(279.2113971072532 238.57664469694646) rotate(0 21.613679290766243 19.893328378026126)"><path d="M19.95 -0.32 C24.5 -1.06, 30.54 1.34, 34.21 3.66 C37.89 5.98, 40.78 9.57, 42.03 13.61 C43.28 17.66, 43.65 23.9, 41.74 27.94 C39.82 31.98, 34.87 36.11, 30.55 37.86 C26.22 39.61, 20.36 39.46, 15.8 38.45 C11.24 37.44, 5.99 34.97, 3.21 31.8 C0.42 28.62, -1.41 23.78, -0.92 19.39 C-0.43 15, 2.03 8.68, 6.15 5.48 C10.27 2.27, 20.45 0.79, 23.79 0.17 C27.12 -0.46, 26.2 1.38, 26.16 1.73 M26.85 1.81 C31.24 2.5, 35.59 5.93, 38.24 8.98 C40.88 12.03, 43.03 16.09, 42.71 20.13 C42.38 24.17, 39.5 29.87, 36.29 33.23 C33.08 36.6, 27.6 39.96, 23.45 40.3 C19.3 40.64, 15.09 37.8, 11.4 35.28 C7.7 32.77, 2.91 28.81, 1.27 25.22 C-0.38 21.64, -0.1 17.54, 1.52 13.77 C3.14 9.99, 6.81 4.94, 10.99 2.55 C15.16 0.15, 23.93 -0.34, 26.57 -0.6 C29.21 -0.86, 27.05 0.6, 26.85 0.98" stroke="#000000" stroke-width="2" fill="none"></path></g><g stroke-linecap="round"><g transform="translate(298.36586041826706 278.1427892951366) rotate(0 -0.1399083145411737 24.198090964755238)"><path d="M-0.26 -0.7 C-0.46 7.38, -1.07 40.82, -1.47 49.1 M1.8 1.54 C1.53 9.24, -1.16 39.85, -2.08 47.43" stroke="#000000" stroke-width="2" fill="none"></path></g></g><mask></mask><g stroke-linecap="round"><g transform="translate(296.43395999574693 327.61271234991193) rotate(0 9.048973212491092 15.215842408038725)"><path d="M0.65 0.87 C3.79 6.01, 15.43 25.46, 18.56 30.16 M-0.47 0.28 C2.49 5.14, 14.11 23.45, 17.34 28.42" stroke="#000000" stroke-width="2" fill="none"></path></g></g><mask></mask><g stroke-linecap="round"><g transform="translate(293.71717299206364 325.7082768807742) rotate(0 -7.65352410821373 14.174649165658082)"><path d="M-0.53 0.74 C-3.3 5.08, -13.18 22.44, -15.95 26.93 M1.39 0.08 C-1.56 4.52, -14.02 24.02, -16.7 28.27" stroke="#000000" stroke-width="2" fill="none"></path></g></g><mask></mask><g stroke-linecap="round"><g transform="translate(271.9968735174217 305.5517163520241) rotate(0 12.912240964668513 -9.04151989129042)"><path d="M0.38 -0.39 C4.54 -3.14, 20.26 -13.02, 24.42 -15.78 M-0.87 -1.64 C3.71 -4.83, 22.46 -15.29, 26.7 -17.69" stroke="#000000" stroke-width="2" fill="none"></path></g></g><mask></mask><g stroke-linecap="round"><g transform="translate(296.6419212072384 288.45556054005544) rotate(0 8.652866540189734 10.709393912587302)"><path d="M-0.82 0.39 C2.13 3.92, 14.96 17.36, 18.13 20.74 M0.94 -0.44 C3.72 3.25, 14.45 18.2, 17.22 21.86" stroke="#000000" stroke-width="2" fill="none"></path></g></g><mask></mask><g transform="translate(280.2335894494198 243.68255779637752) rotate(0 19.038021567511066 8.547683152760072)"><text x="0" y="0" font-family="Virgil, Segoe UI Emoji" font-size="11.875091808767005px" fill="#000000" text-anchor="start" style="white-space: pre;" direction="ltr" dominant-baseline="text-before-edge">｡◕‿◕｡</text></g></svg>